<?xml version="1.0" standalone="no"?>
<!DOCTYPE svg PUBLIC "-//W3C//DTD SVG 20010904//EN"
 "http://www.w3.org/TR/2001/REC-SVG-20010904/DTD/svg10.dtd">
<svg version="1.0" xmlns="http://www.w3.org/2000/svg"
 width="512.000000pt" height="512.000000pt" viewBox="0 0 512.000000 512.000000"
 preserveAspectRatio="xMidYMid meet">
<metadata>
Created by potrace 1.11, written by Peter Selinger 2001-2013
</metadata>
<g transform="translate(0.000000,512.000000) scale(0.100000,-0.100000)"
fill="#000000" stroke="none">
<path d="M3736 5095 l-26 -24 0 -563 0 -564 -267 -144 c-147 -80 -303 -164
-347 -188 -45 -24 -92 -51 -105 -59 l-24 -16 20 29 c49 70 47 120 -13 237 -83
165 -99 183 -188 193 -60 8 -175 -49 -211 -105 -42 -63 -37 -107 29 -240 32
-62 69 -124 84 -137 37 -32 87 -47 131 -40 36 5 35 5 -16 -24 -80 -46 -111
-103 -168 -309 -85 -312 -100 -364 -164 -576 -23 -77 -31 -128 -36 -225 -4
-69 -8 -145 -10 -170 -2 -25 -7 -114 -11 -199 l-7 -155 -42 -90 c-23 -50 -64
-136 -90 -191 -57 -120 -137 -290 -190 -402 l-38 -82 -177 -3 c-172 -3 -178
-4 -217 -30 -72 -47 -78 -73 -78 -315 0 -117 -2 -213 -5 -213 -3 0 -15 16 -27
35 -13 19 -42 44 -65 56 -42 21 -54 22 -379 22 -184 0 -349 -3 -365 -7 -45
-11 -94 -54 -115 -100 -15 -34 -19 -66 -19 -193 l0 -152 -142 1 -142 1 -23
-27 c-30 -35 -29 -71 2 -101 l24 -25 2231 0 c2258 0 2260 0 2282 34 15 22 8
76 -12 96 -21 21 -24 22 -207 22 l-113 0 -2 997 -3 997 -25 38 c-29 42 -114
89 -157 86 -15 -1 -123 -2 -238 -1 l-210 1 3 788 c4 809 4 865 0 1112 l-3 145
458 1 c316 0 460 3 468 11 21 21 -2 50 -127 158 -69 60 -130 117 -135 127 -11
21 -15 16 159 170 61 55 112 105 112 112 0 35 -18 36 -480 36 l-456 0 1 63 c1
73 -8 101 -42 116 -36 17 -57 13 -87 -14z m-26 -2166 c0 -476 -3 -668 -11
-664 -18 12 -93 -23 -126 -58 -17 -17 -35 -48 -41 -67 -7 -21 -11 -163 -11
-365 0 -181 0 -339 -1 -350 0 -15 -5 -11 -19 15 -28 55 -90 91 -159 94 l-57 3
1 44 c1 42 10 124 19 179 2 14 7 48 9 75 7 66 17 143 22 168 2 11 6 52 9 91 6
66 4 74 -23 121 -25 42 -157 206 -245 305 -12 14 -44 51 -70 82 l-48 57 81
248 c45 136 91 274 103 306 l22 57 270 165 c149 90 271 164 273 165 1 0 2
-302 2 -671z m-761 -804 c39 -24 74 -53 80 -63 12 -23 19 -77 36 -272 3 -30 8
-82 11 -115 4 -33 7 -78 8 -99 l1 -40 -200 -1 c-189 -1 -202 -2 -240 -23 -22
-13 -52 -39 -65 -59 -25 -36 -25 -41 -30 -286 -5 -244 -5 -249 -22 -214 -9 19
-34 48 -54 64 -34 25 -46 28 -131 31 -51 2 -93 6 -93 8 0 3 123 168 273 367
288 382 278 366 302 502 21 124 41 232 44 243 2 6 16 -1 80 -43z"/>
</g>
</svg>
